<svg width="40" height="41" viewBox="0 0 40 41" fill="none" xmlns="http://www.w3.org/2000/svg">
<path d="M20.241 10.3735C14.9176 10.3735 10.6024 14.7965 10.6024 20.253C10.6024 25.7095 14.9176 30.1325 20.241 30.1325C25.5643 30.1325 29.8795 25.7095 29.8795 20.253C29.8795 14.7965 25.5643 10.3735 20.241 10.3735ZM20.241 11.805C22.3407 11.805 24.2574 12.6102 25.7128 13.935C24.6434 15.3809 23.0188 16.3437 21.3909 16.9952C20.4693 15.2749 19.4365 13.6197 18.2993 12.0406C18.9353 11.8835 19.5872 11.8044 20.2415 11.805H20.241ZM16.7345 12.6053C17.8092 14.2532 18.8501 15.781 19.801 17.5104C17.3962 18.1491 14.6786 18.5325 12.1682 18.5389C12.6974 15.907 14.4222 13.7216 16.7345 12.6058V12.6053ZM26.627 14.9121C27.818 16.4039 28.4731 18.2696 28.4829 20.1972C26.5764 19.8119 24.6805 19.7111 22.7499 19.9107C22.533 19.3559 22.2699 18.8289 22.0178 18.2608C23.6819 17.5727 25.4612 16.395 26.627 14.9116V14.9121ZM20.4704 18.8175C20.6766 19.267 20.9157 19.7442 21.1402 20.2318C18.4559 21.445 15.6005 23.0662 14.1186 25.9085C12.6959 24.2948 11.9377 22.1794 12.0029 20.0055C14.8776 19.9917 17.6993 19.6232 20.4704 18.8175V18.8175ZM24.826 21.1209C26.0255 21.1212 27.2199 21.2789 28.3802 21.5902C28.2013 22.7344 27.7947 23.8286 27.1855 24.8047C26.5764 25.7809 25.7779 26.6182 24.8395 27.2645C24.3971 25.2021 23.9754 23.2287 23.2299 21.239C23.7583 21.16 24.2916 21.1204 24.8255 21.1204L24.826 21.1209ZM28.4231 21.274C28.4174 21.3225 28.4121 21.3699 28.4053 21.4173C28.4121 21.3694 28.4178 21.322 28.4231 21.274ZM21.7051 21.6248C22.4646 23.6367 23.0607 25.8646 23.4607 28.0326C22.4425 28.4755 21.3475 28.7029 20.2415 28.7015C18.4091 28.7041 16.6286 28.0781 15.1836 26.9231C16.6762 24.4414 18.988 22.5633 21.7046 21.6253L21.7051 21.6248Z" fill="#2864FF"/>
</svg>
