<svg width="41" height="41" viewBox="0 0 41 41" fill="none" xmlns="http://www.w3.org/2000/svg">
<path fill-rule="evenodd" clip-rule="evenodd" d="M16.8267 10.801C17.8407 10.7543 18.164 10.744 20.747 10.744C23.33 10.744 23.6533 10.7552 24.6664 10.801C25.6796 10.8468 26.3711 11.0085 26.9763 11.2427C27.6099 11.4822 28.1848 11.8565 28.6602 12.3406C29.1443 12.8152 29.5178 13.3892 29.7564 14.0237C29.9915 14.6288 30.1523 15.3204 30.199 16.3318C30.2456 17.3476 30.256 17.6709 30.256 20.253C30.256 22.836 30.2448 23.1593 30.199 24.1733C30.1531 25.1847 29.9915 25.8763 29.7564 26.4814C29.5178 27.116 29.1437 27.691 28.6602 28.1662C28.1848 28.6503 27.6099 29.0238 26.9763 29.2624C26.3711 29.4975 25.6796 29.6583 24.6682 29.705C23.6533 29.7517 23.33 29.762 20.747 29.762C18.164 29.762 17.8407 29.7508 16.8267 29.705C15.8153 29.6592 15.1237 29.4975 14.5186 29.2624C13.884 29.0238 13.309 28.6497 12.8337 28.1662C12.35 27.6914 11.9756 27.1167 11.7367 26.4823C11.5025 25.8772 11.3417 25.1856 11.295 24.1742C11.2483 23.1584 11.2379 22.8351 11.2379 20.253C11.2379 17.67 11.2492 17.3467 11.295 16.3335C11.3408 15.3204 11.5025 14.6288 11.7367 14.0237C11.976 13.3893 12.3506 12.8146 12.8346 12.3397C13.3092 11.8561 13.8836 11.4817 14.5177 11.2427C15.1228 11.0085 15.8144 10.8477 16.8258 10.801H16.8267ZM24.5895 12.5126C23.5867 12.4668 23.2859 12.4573 20.747 12.4573C18.2081 12.4573 17.9072 12.4668 16.9045 12.5126C15.9769 12.555 15.4738 12.7097 15.1384 12.8403C14.6949 13.0132 14.3777 13.218 14.0448 13.5509C13.7294 13.8578 13.4866 14.2314 13.3343 14.6444C13.2037 14.9798 13.049 15.4829 13.0066 16.4105C12.9608 17.4133 12.9513 17.7141 12.9513 20.253C12.9513 22.7919 12.9608 23.0927 13.0066 24.0955C13.049 25.0231 13.2037 25.5262 13.3343 25.8616C13.4864 26.2739 13.7293 26.6483 14.0448 26.9551C14.3517 27.2707 14.726 27.5136 15.1384 27.6657C15.4738 27.7963 15.9769 27.951 16.9045 27.9934C17.9072 28.0392 18.2072 28.0487 20.747 28.0487C23.2868 28.0487 23.5867 28.0392 24.5895 27.9934C25.5171 27.951 26.0202 27.7963 26.3556 27.6657C26.7991 27.4928 27.1163 27.288 27.4491 26.9551C27.7647 26.6483 28.0076 26.2739 28.1597 25.8616C28.2902 25.5262 28.445 25.0231 28.4873 24.0955C28.5332 23.0927 28.5427 22.7919 28.5427 20.253C28.5427 17.7141 28.5332 17.4133 28.4873 16.4105C28.445 15.4829 28.2902 14.9798 28.1597 14.6444C27.9868 14.2009 27.7819 13.8837 27.4491 13.5509C27.1422 13.2354 26.7685 12.9926 26.3556 12.8403C26.0202 12.7097 25.5171 12.555 24.5895 12.5126V12.5126ZM19.5324 23.1844C20.2107 23.4667 20.966 23.5048 21.6693 23.2922C22.3726 23.0795 22.9802 22.6293 23.3884 22.0184C23.7966 21.4075 23.9801 20.6739 23.9075 19.9427C23.8349 19.2116 23.5107 18.5284 22.9903 18.0097C22.6585 17.6782 22.2574 17.4243 21.8157 17.2664C21.3741 17.1085 20.903 17.0505 20.4362 17.0965C19.9695 17.1426 19.5187 17.2915 19.1164 17.5327C18.7142 17.7738 18.3704 18.1011 18.1098 18.4911C17.8492 18.8811 17.6783 19.324 17.6094 19.7879C17.5406 20.2518 17.5754 20.7252 17.7115 21.1741C17.8475 21.6229 18.0814 22.036 18.3963 22.3836C18.7111 22.7313 19.0992 23.0047 19.5324 23.1844ZM17.2909 16.7969C17.7447 16.343 18.2836 15.983 18.8766 15.7374C19.4696 15.4918 20.1051 15.3653 20.747 15.3653C21.3888 15.3653 22.0244 15.4918 22.6174 15.7374C23.2104 15.983 23.7492 16.343 24.2031 16.7969C24.6569 17.2508 25.017 17.7896 25.2626 18.3826C25.5082 18.9756 25.6347 19.6111 25.6347 20.253C25.6347 20.8949 25.5082 21.5304 25.2626 22.1234C25.017 22.7164 24.6569 23.2552 24.2031 23.7091C23.2865 24.6257 22.0433 25.1407 20.747 25.1407C19.4507 25.1407 18.2075 24.6257 17.2909 23.7091C16.3743 22.7925 15.8593 21.5493 15.8593 20.253C15.8593 18.9567 16.3743 17.7135 17.2909 16.7969V16.7969ZM26.7187 16.0932C26.8311 15.9871 26.9212 15.8595 26.9834 15.718C27.0457 15.5765 27.079 15.4239 27.0812 15.2693C27.0835 15.1147 27.0547 14.9613 26.9966 14.818C26.9384 14.6747 26.8522 14.5446 26.7428 14.4352C26.6335 14.3259 26.5033 14.2396 26.3601 14.1815C26.2168 14.1234 26.0633 14.0946 25.9087 14.0968C25.7541 14.0991 25.6015 14.1323 25.46 14.1946C25.3185 14.2569 25.1909 14.3469 25.0848 14.4594C24.8785 14.6781 24.7655 14.9687 24.7699 15.2693C24.7743 15.57 24.8957 15.8571 25.1083 16.0697C25.3209 16.2824 25.6081 16.4038 25.9087 16.4081C26.2094 16.4125 26.4999 16.2996 26.7187 16.0932V16.0932Z" fill="#2864FF"/>
</svg>
