<svg width="41" height="41" viewBox="0 0 41 41" fill="none" xmlns="http://www.w3.org/2000/svg">
<path d="M30.256 12.4729C29.4282 13.0568 28.5117 13.5035 27.5417 13.7955C27.021 13.1969 26.3291 12.7726 25.5595 12.5801C24.7899 12.3875 23.9797 12.4359 23.2385 12.7188C22.4973 13.0017 21.8608 13.5054 21.4152 14.1618C20.9696 14.8182 20.7364 15.5956 20.747 16.3889V17.2534C19.2278 17.2928 17.7225 16.9558 16.3651 16.2726C15.0077 15.5894 13.8403 14.581 12.9669 13.3374C12.9669 13.3374 9.50906 21.1175 17.2892 24.5753C15.5089 25.7838 13.388 26.3898 11.238 26.3043C19.0181 30.6265 28.5271 26.3043 28.5271 16.363C28.5263 16.1222 28.5032 15.882 28.458 15.6455C29.3402 14.7754 29.9628 13.6769 30.256 12.4729V12.4729Z" stroke="#2864FF" stroke-width="2" stroke-linecap="round" stroke-linejoin="round"/>
</svg>
